<?xml version="1.0" encoding="utf-8"?>
<!-- Generator: Adobe Illustrator 18.0.0, SVG Export Plug-In . SVG Version: 6.00 Build 0)  -->
<!DOCTYPE svg PUBLIC "-//W3C//DTD SVG 1.1//EN" "http://www.w3.org/Graphics/SVG/1.1/DTD/svg11.dtd">
<svg version="1.1" id="Capa_1" xmlns="http://www.w3.org/2000/svg" xmlns:xlink="http://www.w3.org/1999/xlink" x="0px" y="0px"
	 viewBox="0 0 595.3 841.9" enable-background="new 0 0 595.3 841.9" xml:space="preserve">
<rect x="-94" y="29.9" display="none" fill="#231F20" width="807" height="745"/>
<g>
	<path fill="#FFFFFF" d="M534.4,123.3H60.9C27.3,123.3,0,150.5,0,184.2v473.5c0,33.6,27.3,60.9,60.9,60.9h473.5
		c33.6,0,60.9-27.2,60.9-60.9V184.2C595.3,150.5,568,123.3,534.4,123.3z M524,254.4c0,0-88.1-32.2-88.1,33.3v49.4h86l-7.6,81.7
		h-78.3v278.3H330.6V418.8H279v-81.7h51.6v-49.4v-36.5c0,0-1.1-66.3,85.4-85.4c60.7-13.5,119.8,5.9,119.8,5.9L524,254.4z"/>
</g>
</svg>
