<?xml version="1.0" encoding="utf-8"?>
<!-- Generator: Adobe Illustrator 18.0.0, SVG Export Plug-In . SVG Version: 6.00 Build 0)  -->
<!DOCTYPE svg PUBLIC "-//W3C//DTD SVG 1.1//EN" "http://www.w3.org/Graphics/SVG/1.1/DTD/svg11.dtd">
<svg version="1.1" id="Capa_1" xmlns="http://www.w3.org/2000/svg" xmlns:xlink="http://www.w3.org/1999/xlink" x="0px" y="0px"
	 viewBox="0 0 513 513" enable-background="new 0 0 513 513" xml:space="preserve">
<g>
	<path fill="#FFFFFF" d="M256.5,0C114.8,0,0,114.8,0,256.5S114.8,513,256.5,513S513,398.2,513,256.5S398.2,0,256.5,0z M256.5,472.9
		C137,472.9,40.1,376,40.1,256.5C40.1,137,137,40.1,256.5,40.1S472.9,137,472.9,256.5C472.9,376,376,472.9,256.5,472.9z"/>
	<path fill="#FFFFFF" d="M344.3,144.3c-32.6,0-58.1,21.1-69.1,60.8c12-5.7,33.8-8.7,35.6,11.2c1.7,19.9-28.4,71.2-41.7,71.2
		c-13.2,0-23-58.1-26.5-84.6C239.1,176.3,233,147,208,147c-25,0-57.1,39.2-79.7,57.1l11.8,16.1c0,0,16.7-13.1,22.6-12.1
		c15.2,4,28.2,65.8,34.8,89.4c6.6,23.6,14.7,71.3,47.3,71.3c52.7,0,140-130.8,140-173.5C384.8,167.1,376.9,144.3,344.3,144.3z"/>
</g>
</svg>
